<mxfile host="app.diagrams.net" agent="Mozilla/5.0 (Windows NT 10.0; Win64; x64) AppleWebKit/537.36 (KHTML, like Gecko) Chrome/137.0.0.0 Safari/537.36" version="28.0.3">
  <diagram name="Página-1" id="m1e7Van6qy0bm5J_g41m">
    <mxGraphModel dx="2571" dy="946" grid="1" gridSize="10" guides="1" tooltips="1" connect="1" arrows="1" fold="1" page="1" pageScale="1" pageWidth="827" pageHeight="1169" math="0" shadow="0">
      <root>
        <mxCell id="0" />
        <mxCell id="1" parent="0" />
        <mxCell id="3cb6sZNOvw4URRTZMDJZ-5" value="Fabricante" style="rounded=0;whiteSpace=wrap;html=1;" parent="1" vertex="1">
          <mxGeometry x="560" y="455" width="120" height="60" as="geometry" />
        </mxCell>
        <mxCell id="3cb6sZNOvw4URRTZMDJZ-32" value="" style="edgeStyle=orthogonalEdgeStyle;rounded=0;orthogonalLoop=1;jettySize=auto;html=1;" parent="1" source="3cb6sZNOvw4URRTZMDJZ-6" target="3cb6sZNOvw4URRTZMDJZ-28" edge="1">
          <mxGeometry relative="1" as="geometry" />
        </mxCell>
        <mxCell id="3cb6sZNOvw4URRTZMDJZ-54" value="N:M" style="edgeLabel;html=1;align=center;verticalAlign=middle;resizable=0;points=[];" parent="3cb6sZNOvw4URRTZMDJZ-32" vertex="1" connectable="0">
          <mxGeometry x="-0.16" relative="1" as="geometry">
            <mxPoint as="offset" />
          </mxGeometry>
        </mxCell>
        <mxCell id="3cb6sZNOvw4URRTZMDJZ-6" value="Ensamblan" style="rhombus;whiteSpace=wrap;html=1;" parent="1" vertex="1">
          <mxGeometry x="390" y="445" width="80" height="80" as="geometry" />
        </mxCell>
        <mxCell id="3cb6sZNOvw4URRTZMDJZ-12" value="" style="endArrow=classic;html=1;rounded=0;entryX=1;entryY=0.5;entryDx=0;entryDy=0;exitX=0;exitY=0.5;exitDx=0;exitDy=0;edgeStyle=orthogonalEdgeStyle;" parent="1" source="3cb6sZNOvw4URRTZMDJZ-5" target="3cb6sZNOvw4URRTZMDJZ-6" edge="1">
          <mxGeometry width="50" height="50" relative="1" as="geometry">
            <mxPoint x="589" y="480" as="sourcePoint" />
            <mxPoint x="509" y="480" as="targetPoint" />
          </mxGeometry>
        </mxCell>
        <mxCell id="3cb6sZNOvw4URRTZMDJZ-18" value="N:M" style="edgeLabel;html=1;align=center;verticalAlign=middle;resizable=0;points=[];" parent="3cb6sZNOvw4URRTZMDJZ-12" vertex="1" connectable="0">
          <mxGeometry x="0.05" relative="1" as="geometry">
            <mxPoint x="3" as="offset" />
          </mxGeometry>
        </mxCell>
        <mxCell id="3cb6sZNOvw4URRTZMDJZ-24" value="" style="edgeStyle=orthogonalEdgeStyle;rounded=0;orthogonalLoop=1;jettySize=auto;html=1;" parent="1" source="3cb6sZNOvw4URRTZMDJZ-19" target="3cb6sZNOvw4URRTZMDJZ-23" edge="1">
          <mxGeometry relative="1" as="geometry" />
        </mxCell>
        <mxCell id="3cb6sZNOvw4URRTZMDJZ-59" value="N:M" style="edgeLabel;html=1;align=center;verticalAlign=middle;resizable=0;points=[];" parent="3cb6sZNOvw4URRTZMDJZ-24" vertex="1" connectable="0">
          <mxGeometry x="-0.04" y="1" relative="1" as="geometry">
            <mxPoint as="offset" />
          </mxGeometry>
        </mxCell>
        <mxCell id="3cb6sZNOvw4URRTZMDJZ-19" value="Puede_estar_en" style="rhombus;whiteSpace=wrap;html=1;" parent="1" vertex="1">
          <mxGeometry x="-30" y="440" width="120" height="90" as="geometry" />
        </mxCell>
        <mxCell id="3cb6sZNOvw4URRTZMDJZ-23" value="Promoción" style="whiteSpace=wrap;html=1;" parent="1" vertex="1">
          <mxGeometry x="-200" y="455" width="120" height="60" as="geometry" />
        </mxCell>
        <mxCell id="RxPfyWV3S4_mNvQoAL_f-59" style="edgeStyle=orthogonalEdgeStyle;rounded=0;orthogonalLoop=1;jettySize=auto;html=1;entryX=0.5;entryY=0;entryDx=0;entryDy=0;" parent="1" source="3cb6sZNOvw4URRTZMDJZ-27" target="3cb6sZNOvw4URRTZMDJZ-37" edge="1">
          <mxGeometry relative="1" as="geometry" />
        </mxCell>
        <mxCell id="RxPfyWV3S4_mNvQoAL_f-64" value="N:M" style="edgeLabel;html=1;align=center;verticalAlign=middle;resizable=0;points=[];" parent="RxPfyWV3S4_mNvQoAL_f-59" vertex="1" connectable="0">
          <mxGeometry x="0.1797" y="1" relative="1" as="geometry">
            <mxPoint as="offset" />
          </mxGeometry>
        </mxCell>
        <mxCell id="3cb6sZNOvw4URRTZMDJZ-27" value="Distribudor" style="rounded=0;whiteSpace=wrap;html=1;" parent="1" vertex="1">
          <mxGeometry x="-200" y="170" width="120" height="60" as="geometry" />
        </mxCell>
        <mxCell id="3cb6sZNOvw4URRTZMDJZ-31" value="" style="edgeStyle=orthogonalEdgeStyle;rounded=0;orthogonalLoop=1;jettySize=auto;html=1;entryX=0.5;entryY=0;entryDx=0;entryDy=0;" parent="1" source="3cb6sZNOvw4URRTZMDJZ-28" target="3cb6sZNOvw4URRTZMDJZ-33" edge="1">
          <mxGeometry x="1" y="192" relative="1" as="geometry">
            <mxPoint x="230" y="595" as="targetPoint" />
            <mxPoint x="-2" y="30" as="offset" />
          </mxGeometry>
        </mxCell>
        <mxCell id="3cb6sZNOvw4URRTZMDJZ-64" value="1:N" style="edgeLabel;html=1;align=center;verticalAlign=middle;resizable=0;points=[];" parent="3cb6sZNOvw4URRTZMDJZ-31" vertex="1" connectable="0">
          <mxGeometry x="0.1111" y="1" relative="1" as="geometry">
            <mxPoint as="offset" />
          </mxGeometry>
        </mxCell>
        <mxCell id="3cb6sZNOvw4URRTZMDJZ-36" value="" style="edgeStyle=orthogonalEdgeStyle;rounded=0;orthogonalLoop=1;jettySize=auto;html=1;" parent="1" source="3cb6sZNOvw4URRTZMDJZ-28" target="3cb6sZNOvw4URRTZMDJZ-19" edge="1">
          <mxGeometry relative="1" as="geometry" />
        </mxCell>
        <mxCell id="3cb6sZNOvw4URRTZMDJZ-58" value="N:M" style="edgeLabel;html=1;align=center;verticalAlign=middle;resizable=0;points=[];" parent="3cb6sZNOvw4URRTZMDJZ-36" vertex="1" connectable="0">
          <mxGeometry x="-0.075" y="1" relative="1" as="geometry">
            <mxPoint as="offset" />
          </mxGeometry>
        </mxCell>
        <mxCell id="3cb6sZNOvw4URRTZMDJZ-28" value="Producto" style="whiteSpace=wrap;html=1;" parent="1" vertex="1">
          <mxGeometry x="170" y="455" width="120" height="60" as="geometry" />
        </mxCell>
        <mxCell id="3cb6sZNOvw4URRTZMDJZ-35" value="" style="edgeStyle=orthogonalEdgeStyle;rounded=0;orthogonalLoop=1;jettySize=auto;html=1;" parent="1" source="3cb6sZNOvw4URRTZMDJZ-33" target="3cb6sZNOvw4URRTZMDJZ-34" edge="1">
          <mxGeometry relative="1" as="geometry" />
        </mxCell>
        <mxCell id="3cb6sZNOvw4URRTZMDJZ-69" value="1:N" style="edgeLabel;html=1;align=center;verticalAlign=middle;resizable=0;points=[];" parent="3cb6sZNOvw4URRTZMDJZ-35" vertex="1" connectable="0">
          <mxGeometry x="-0.15" y="-1" relative="1" as="geometry">
            <mxPoint as="offset" />
          </mxGeometry>
        </mxCell>
        <mxCell id="3cb6sZNOvw4URRTZMDJZ-33" value="Tienen" style="rhombus;whiteSpace=wrap;html=1;" parent="1" vertex="1">
          <mxGeometry x="190" y="550" width="80" height="80" as="geometry" />
        </mxCell>
        <mxCell id="3cb6sZNOvw4URRTZMDJZ-34" value="Modelo" style="whiteSpace=wrap;html=1;" parent="1" vertex="1">
          <mxGeometry x="170" y="670" width="120" height="60" as="geometry" />
        </mxCell>
        <mxCell id="RxPfyWV3S4_mNvQoAL_f-60" style="edgeStyle=orthogonalEdgeStyle;rounded=0;orthogonalLoop=1;jettySize=auto;html=1;exitX=0.5;exitY=1;exitDx=0;exitDy=0;entryX=0.5;entryY=0;entryDx=0;entryDy=0;" parent="1" source="3cb6sZNOvw4URRTZMDJZ-37" target="3cb6sZNOvw4URRTZMDJZ-23" edge="1">
          <mxGeometry relative="1" as="geometry" />
        </mxCell>
        <mxCell id="RxPfyWV3S4_mNvQoAL_f-65" value="N:M" style="edgeLabel;html=1;align=center;verticalAlign=middle;resizable=0;points=[];" parent="RxPfyWV3S4_mNvQoAL_f-60" vertex="1" connectable="0">
          <mxGeometry x="-0.092" relative="1" as="geometry">
            <mxPoint as="offset" />
          </mxGeometry>
        </mxCell>
        <mxCell id="3cb6sZNOvw4URRTZMDJZ-37" value="Impulsada_por" style="rhombus;whiteSpace=wrap;html=1;" parent="1" vertex="1">
          <mxGeometry x="-187.5" y="290" width="95" height="100" as="geometry" />
        </mxCell>
        <mxCell id="3cb6sZNOvw4URRTZMDJZ-44" value="&lt;ul&gt;&lt;li&gt;ID_Modelo&amp;nbsp;&lt;/li&gt;&lt;li&gt;Nombre_Modelo&lt;/li&gt;&lt;li&gt;Especificaciones_Tecnicas&lt;/li&gt;&lt;/ul&gt;" style="text;html=1;align=left;verticalAlign=middle;whiteSpace=wrap;rounded=0;" parent="1" vertex="1">
          <mxGeometry x="270" y="685" width="60" height="30" as="geometry" />
        </mxCell>
        <mxCell id="3cb6sZNOvw4URRTZMDJZ-48" value="&lt;ul&gt;&lt;li&gt;ID_Fabricante&lt;/li&gt;&lt;li&gt;Nombre_Fabricante&lt;/li&gt;&lt;li&gt;Certificación_ISO&lt;/li&gt;&lt;/ul&gt;" style="text;html=1;align=left;verticalAlign=middle;whiteSpace=wrap;rounded=0;" parent="1" vertex="1">
          <mxGeometry x="660" y="470" width="60" height="30" as="geometry" />
        </mxCell>
        <mxCell id="3cb6sZNOvw4URRTZMDJZ-50" value="&lt;ul&gt;&lt;li&gt;ID_Producto&lt;/li&gt;&lt;li&gt;Nombre&lt;/li&gt;&lt;li&gt;Categoría&lt;/li&gt;&lt;/ul&gt;" style="text;html=1;align=left;verticalAlign=middle;resizable=0;points=[];autosize=1;strokeColor=none;fillColor=none;" parent="1" vertex="1">
          <mxGeometry x="165" y="390" width="130" height="80" as="geometry" />
        </mxCell>
        <mxCell id="3cb6sZNOvw4URRTZMDJZ-52" value="&lt;ul&gt;&lt;li&gt;ID_Promocion&lt;/li&gt;&lt;li&gt;Fecha_Inicio&lt;/li&gt;&lt;li&gt;Fecha_Final&lt;/li&gt;&lt;li&gt;Vigente&lt;/li&gt;&lt;/ul&gt;" style="text;html=1;align=center;verticalAlign=middle;resizable=0;points=[];autosize=1;strokeColor=none;fillColor=none;" parent="1" vertex="1">
          <mxGeometry x="-350" y="443" width="140" height="100" as="geometry" />
        </mxCell>
        <mxCell id="3cb6sZNOvw4URRTZMDJZ-53" value="&lt;ul&gt;&lt;li&gt;ID_Distribuidor&lt;/li&gt;&lt;li&gt;Nombre&lt;/li&gt;&lt;li&gt;Región&lt;/li&gt;&lt;/ul&gt;" style="text;html=1;align=left;verticalAlign=middle;resizable=0;points=[];autosize=1;strokeColor=none;fillColor=none;" parent="1" vertex="1">
          <mxGeometry x="-210" y="90" width="140" height="80" as="geometry" />
        </mxCell>
        <mxCell id="14Edlrp8t2BX-L2ckEcl-1" value="&lt;font style=&quot;font-size: 26px;&quot;&gt;EMPRESA DE TECNOLOGIA&amp;nbsp;&lt;/font&gt;" style="text;html=1;align=center;verticalAlign=middle;resizable=0;points=[];autosize=1;strokeColor=none;fillColor=none;" vertex="1" parent="1">
          <mxGeometry x="-670" y="110" width="380" height="40" as="geometry" />
        </mxCell>
        <mxCell id="14Edlrp8t2BX-L2ckEcl-3" value="" style="rounded=0;whiteSpace=wrap;html=1;" vertex="1" parent="1">
          <mxGeometry x="1695" y="590" width="120" height="80" as="geometry" />
        </mxCell>
        <mxCell id="14Edlrp8t2BX-L2ckEcl-4" value="" style="edgeStyle=orthogonalEdgeStyle;rounded=0;orthogonalLoop=1;jettySize=auto;html=1;exitX=0.5;exitY=0;exitDx=0;exitDy=0;" edge="1" parent="1" source="14Edlrp8t2BX-L2ckEcl-6" target="14Edlrp8t2BX-L2ckEcl-15">
          <mxGeometry relative="1" as="geometry" />
        </mxCell>
        <mxCell id="14Edlrp8t2BX-L2ckEcl-5" value="" style="edgeStyle=orthogonalEdgeStyle;rounded=0;orthogonalLoop=1;jettySize=auto;html=1;exitX=0.5;exitY=1;exitDx=0;exitDy=0;" edge="1" parent="1" source="14Edlrp8t2BX-L2ckEcl-6" target="14Edlrp8t2BX-L2ckEcl-20">
          <mxGeometry relative="1" as="geometry" />
        </mxCell>
        <mxCell id="14Edlrp8t2BX-L2ckEcl-6" value="Personal&amp;nbsp;" style="rounded=0;whiteSpace=wrap;html=1;" vertex="1" parent="1">
          <mxGeometry x="1035" y="460" width="120" height="60" as="geometry" />
        </mxCell>
        <mxCell id="14Edlrp8t2BX-L2ckEcl-7" value="" style="edgeStyle=orthogonalEdgeStyle;rounded=0;orthogonalLoop=1;jettySize=auto;html=1;exitX=0.5;exitY=0;exitDx=0;exitDy=0;entryX=0.5;entryY=1;entryDx=0;entryDy=0;" edge="1" parent="1" source="14Edlrp8t2BX-L2ckEcl-9" target="14Edlrp8t2BX-L2ckEcl-31">
          <mxGeometry relative="1" as="geometry" />
        </mxCell>
        <mxCell id="14Edlrp8t2BX-L2ckEcl-8" style="edgeStyle=orthogonalEdgeStyle;rounded=0;orthogonalLoop=1;jettySize=auto;html=1;entryX=0.5;entryY=0;entryDx=0;entryDy=0;exitX=0.5;exitY=1;exitDx=0;exitDy=0;" edge="1" parent="1" source="14Edlrp8t2BX-L2ckEcl-9" target="14Edlrp8t2BX-L2ckEcl-30">
          <mxGeometry relative="1" as="geometry" />
        </mxCell>
        <mxCell id="14Edlrp8t2BX-L2ckEcl-9" value="Proyecto" style="rounded=0;whiteSpace=wrap;html=1;" vertex="1" parent="1">
          <mxGeometry x="2435" y="460" width="120" height="60" as="geometry" />
        </mxCell>
        <mxCell id="14Edlrp8t2BX-L2ckEcl-10" value="Servicios" style="rounded=0;whiteSpace=wrap;html=1;" vertex="1" parent="1">
          <mxGeometry x="1695" y="765" width="120" height="60" as="geometry" />
        </mxCell>
        <mxCell id="14Edlrp8t2BX-L2ckEcl-11" value="" style="edgeStyle=orthogonalEdgeStyle;rounded=0;orthogonalLoop=1;jettySize=auto;html=1;" edge="1" parent="1" source="14Edlrp8t2BX-L2ckEcl-15" target="14Edlrp8t2BX-L2ckEcl-21">
          <mxGeometry relative="1" as="geometry" />
        </mxCell>
        <mxCell id="14Edlrp8t2BX-L2ckEcl-12" value="1:N" style="edgeLabel;html=1;align=center;verticalAlign=middle;resizable=0;points=[];" vertex="1" connectable="0" parent="14Edlrp8t2BX-L2ckEcl-11">
          <mxGeometry x="-0.0056" y="-2" relative="1" as="geometry">
            <mxPoint as="offset" />
          </mxGeometry>
        </mxCell>
        <mxCell id="14Edlrp8t2BX-L2ckEcl-13" style="edgeStyle=orthogonalEdgeStyle;rounded=0;orthogonalLoop=1;jettySize=auto;html=1;entryX=0;entryY=0.5;entryDx=0;entryDy=0;exitX=0.5;exitY=0;exitDx=0;exitDy=0;" edge="1" parent="1" source="14Edlrp8t2BX-L2ckEcl-15" target="14Edlrp8t2BX-L2ckEcl-34">
          <mxGeometry relative="1" as="geometry" />
        </mxCell>
        <mxCell id="14Edlrp8t2BX-L2ckEcl-14" value="0:1" style="edgeLabel;html=1;align=center;verticalAlign=middle;resizable=0;points=[];" vertex="1" connectable="0" parent="14Edlrp8t2BX-L2ckEcl-13">
          <mxGeometry x="0.3621" y="-3" relative="1" as="geometry">
            <mxPoint as="offset" />
          </mxGeometry>
        </mxCell>
        <mxCell id="14Edlrp8t2BX-L2ckEcl-15" value="Directivo" style="rounded=0;whiteSpace=wrap;html=1;" vertex="1" parent="1">
          <mxGeometry x="1205" y="270" width="120" height="60" as="geometry" />
        </mxCell>
        <mxCell id="14Edlrp8t2BX-L2ckEcl-16" value="" style="edgeStyle=orthogonalEdgeStyle;rounded=0;orthogonalLoop=1;jettySize=auto;html=1;" edge="1" parent="1" source="14Edlrp8t2BX-L2ckEcl-20" target="14Edlrp8t2BX-L2ckEcl-37">
          <mxGeometry relative="1" as="geometry" />
        </mxCell>
        <mxCell id="14Edlrp8t2BX-L2ckEcl-17" value="0:N" style="edgeLabel;html=1;align=center;verticalAlign=middle;resizable=0;points=[];" vertex="1" connectable="0" parent="14Edlrp8t2BX-L2ckEcl-16">
          <mxGeometry x="-0.2754" y="-1" relative="1" as="geometry">
            <mxPoint as="offset" />
          </mxGeometry>
        </mxCell>
        <mxCell id="14Edlrp8t2BX-L2ckEcl-18" value="" style="edgeStyle=orthogonalEdgeStyle;rounded=0;orthogonalLoop=1;jettySize=auto;html=1;exitX=0.5;exitY=1;exitDx=0;exitDy=0;" edge="1" parent="1" source="14Edlrp8t2BX-L2ckEcl-20" target="14Edlrp8t2BX-L2ckEcl-43">
          <mxGeometry relative="1" as="geometry" />
        </mxCell>
        <mxCell id="14Edlrp8t2BX-L2ckEcl-19" value="1:N" style="edgeLabel;html=1;align=center;verticalAlign=middle;resizable=0;points=[];" vertex="1" connectable="0" parent="14Edlrp8t2BX-L2ckEcl-18">
          <mxGeometry x="-0.0346" y="2" relative="1" as="geometry">
            <mxPoint as="offset" />
          </mxGeometry>
        </mxCell>
        <mxCell id="14Edlrp8t2BX-L2ckEcl-20" value="Plantilla" style="rounded=0;whiteSpace=wrap;html=1;" vertex="1" parent="1">
          <mxGeometry x="1205" y="600" width="120" height="60" as="geometry" />
        </mxCell>
        <mxCell id="14Edlrp8t2BX-L2ckEcl-21" value="Tiene a su cargo" style="rhombus;whiteSpace=wrap;html=1;rounded=0;" vertex="1" parent="1">
          <mxGeometry x="1445" y="260" width="80" height="80" as="geometry" />
        </mxCell>
        <mxCell id="14Edlrp8t2BX-L2ckEcl-22" value="Personal&amp;nbsp;" style="rounded=0;whiteSpace=wrap;html=1;" vertex="1" parent="1">
          <mxGeometry x="1690" y="270" width="120" height="60" as="geometry" />
        </mxCell>
        <mxCell id="14Edlrp8t2BX-L2ckEcl-23" style="edgeStyle=orthogonalEdgeStyle;rounded=0;orthogonalLoop=1;jettySize=auto;html=1;entryX=0;entryY=0.5;entryDx=0;entryDy=0;entryPerimeter=0;" edge="1" parent="1" source="14Edlrp8t2BX-L2ckEcl-21" target="14Edlrp8t2BX-L2ckEcl-22">
          <mxGeometry relative="1" as="geometry">
            <mxPoint x="1635" y="300" as="targetPoint" />
          </mxGeometry>
        </mxCell>
        <mxCell id="14Edlrp8t2BX-L2ckEcl-24" value="1:1" style="edgeLabel;html=1;align=center;verticalAlign=middle;resizable=0;points=[];" vertex="1" connectable="0" parent="14Edlrp8t2BX-L2ckEcl-23">
          <mxGeometry x="0.2001" y="4" relative="1" as="geometry">
            <mxPoint x="-4" as="offset" />
          </mxGeometry>
        </mxCell>
        <mxCell id="14Edlrp8t2BX-L2ckEcl-25" style="edgeStyle=orthogonalEdgeStyle;rounded=0;orthogonalLoop=1;jettySize=auto;html=1;entryX=0.5;entryY=1;entryDx=0;entryDy=0;" edge="1" parent="1" source="14Edlrp8t2BX-L2ckEcl-27" target="14Edlrp8t2BX-L2ckEcl-40">
          <mxGeometry relative="1" as="geometry" />
        </mxCell>
        <mxCell id="14Edlrp8t2BX-L2ckEcl-26" value="1:N" style="edgeLabel;html=1;align=center;verticalAlign=middle;resizable=0;points=[];" vertex="1" connectable="0" parent="14Edlrp8t2BX-L2ckEcl-25">
          <mxGeometry x="-0.32" y="2" relative="1" as="geometry">
            <mxPoint as="offset" />
          </mxGeometry>
        </mxCell>
        <mxCell id="14Edlrp8t2BX-L2ckEcl-27" value="Empresas" style="rounded=0;whiteSpace=wrap;html=1;" vertex="1" parent="1">
          <mxGeometry x="1695" y="1080" width="120" height="60" as="geometry" />
        </mxCell>
        <mxCell id="14Edlrp8t2BX-L2ckEcl-28" value="" style="edgeStyle=orthogonalEdgeStyle;rounded=0;orthogonalLoop=1;jettySize=auto;html=1;exitX=0.5;exitY=1;exitDx=0;exitDy=0;" edge="1" parent="1" source="14Edlrp8t2BX-L2ckEcl-30" target="14Edlrp8t2BX-L2ckEcl-44">
          <mxGeometry relative="1" as="geometry" />
        </mxCell>
        <mxCell id="14Edlrp8t2BX-L2ckEcl-29" value="1:N" style="edgeLabel;html=1;align=center;verticalAlign=middle;resizable=0;points=[];" vertex="1" connectable="0" parent="14Edlrp8t2BX-L2ckEcl-28">
          <mxGeometry x="0.0857" y="3" relative="1" as="geometry">
            <mxPoint as="offset" />
          </mxGeometry>
        </mxCell>
        <mxCell id="14Edlrp8t2BX-L2ckEcl-30" value="Desarrollo" style="whiteSpace=wrap;html=1;rounded=0;" vertex="1" parent="1">
          <mxGeometry x="2255" y="600" width="120" height="60" as="geometry" />
        </mxCell>
        <mxCell id="14Edlrp8t2BX-L2ckEcl-31" value="Estrategico" style="rounded=0;whiteSpace=wrap;html=1;" vertex="1" parent="1">
          <mxGeometry x="2235" y="250" width="120" height="60" as="geometry" />
        </mxCell>
        <mxCell id="14Edlrp8t2BX-L2ckEcl-32" style="edgeStyle=orthogonalEdgeStyle;rounded=0;orthogonalLoop=1;jettySize=auto;html=1;entryX=0.5;entryY=0;entryDx=0;entryDy=0;" edge="1" parent="1" source="14Edlrp8t2BX-L2ckEcl-34" target="14Edlrp8t2BX-L2ckEcl-31">
          <mxGeometry relative="1" as="geometry" />
        </mxCell>
        <mxCell id="14Edlrp8t2BX-L2ckEcl-33" value="0:1" style="edgeLabel;html=1;align=center;verticalAlign=middle;resizable=0;points=[];" vertex="1" connectable="0" parent="14Edlrp8t2BX-L2ckEcl-32">
          <mxGeometry x="0.8148" y="3" relative="1" as="geometry">
            <mxPoint as="offset" />
          </mxGeometry>
        </mxCell>
        <mxCell id="14Edlrp8t2BX-L2ckEcl-34" value="Gestiona" style="rhombus;whiteSpace=wrap;html=1;rounded=0;" vertex="1" parent="1">
          <mxGeometry x="1715" y="110" width="80" height="80" as="geometry" />
        </mxCell>
        <mxCell id="14Edlrp8t2BX-L2ckEcl-35" style="edgeStyle=orthogonalEdgeStyle;rounded=0;orthogonalLoop=1;jettySize=auto;html=1;entryX=0;entryY=0.5;entryDx=0;entryDy=0;exitX=1;exitY=0.5;exitDx=0;exitDy=0;" edge="1" parent="1" source="14Edlrp8t2BX-L2ckEcl-3" target="14Edlrp8t2BX-L2ckEcl-30">
          <mxGeometry relative="1" as="geometry" />
        </mxCell>
        <mxCell id="14Edlrp8t2BX-L2ckEcl-36" value="0:N" style="edgeLabel;html=1;align=center;verticalAlign=middle;resizable=0;points=[];" vertex="1" connectable="0" parent="14Edlrp8t2BX-L2ckEcl-35">
          <mxGeometry x="-0.0253" y="-4" relative="1" as="geometry">
            <mxPoint as="offset" />
          </mxGeometry>
        </mxCell>
        <mxCell id="14Edlrp8t2BX-L2ckEcl-37" value="Participa_en" style="rhombus;whiteSpace=wrap;html=1;rounded=0;" vertex="1" parent="1">
          <mxGeometry x="1700" y="590" width="110" height="80" as="geometry" />
        </mxCell>
        <mxCell id="14Edlrp8t2BX-L2ckEcl-38" style="edgeStyle=orthogonalEdgeStyle;rounded=0;orthogonalLoop=1;jettySize=auto;html=1;entryX=0.5;entryY=1;entryDx=0;entryDy=0;" edge="1" parent="1" source="14Edlrp8t2BX-L2ckEcl-40" target="14Edlrp8t2BX-L2ckEcl-10">
          <mxGeometry relative="1" as="geometry" />
        </mxCell>
        <mxCell id="14Edlrp8t2BX-L2ckEcl-39" value="1:1" style="edgeLabel;html=1;align=center;verticalAlign=middle;resizable=0;points=[];" vertex="1" connectable="0" parent="14Edlrp8t2BX-L2ckEcl-38">
          <mxGeometry x="-0.1467" y="1" relative="1" as="geometry">
            <mxPoint as="offset" />
          </mxGeometry>
        </mxCell>
        <mxCell id="14Edlrp8t2BX-L2ckEcl-40" value="Contratan" style="rhombus;whiteSpace=wrap;html=1;rounded=0;" vertex="1" parent="1">
          <mxGeometry x="1715" y="900" width="80" height="80" as="geometry" />
        </mxCell>
        <mxCell id="14Edlrp8t2BX-L2ckEcl-41" style="edgeStyle=orthogonalEdgeStyle;rounded=0;orthogonalLoop=1;jettySize=auto;html=1;entryX=0;entryY=0.5;entryDx=0;entryDy=0;" edge="1" parent="1" source="14Edlrp8t2BX-L2ckEcl-43" target="14Edlrp8t2BX-L2ckEcl-10">
          <mxGeometry relative="1" as="geometry">
            <mxPoint x="1705" y="780" as="targetPoint" />
          </mxGeometry>
        </mxCell>
        <mxCell id="14Edlrp8t2BX-L2ckEcl-42" value="1:N" style="edgeLabel;html=1;align=center;verticalAlign=middle;resizable=0;points=[];" vertex="1" connectable="0" parent="14Edlrp8t2BX-L2ckEcl-41">
          <mxGeometry x="-0.2203" relative="1" as="geometry">
            <mxPoint as="offset" />
          </mxGeometry>
        </mxCell>
        <mxCell id="14Edlrp8t2BX-L2ckEcl-43" value="Servicio_P" style="rhombus;whiteSpace=wrap;html=1;rounded=0;" vertex="1" parent="1">
          <mxGeometry x="1225" y="755" width="80" height="80" as="geometry" />
        </mxCell>
        <mxCell id="14Edlrp8t2BX-L2ckEcl-44" value="Servicio_D" style="rhombus;whiteSpace=wrap;html=1;rounded=0;" vertex="1" parent="1">
          <mxGeometry x="2275" y="755" width="80" height="80" as="geometry" />
        </mxCell>
        <mxCell id="14Edlrp8t2BX-L2ckEcl-45" style="edgeStyle=orthogonalEdgeStyle;rounded=0;orthogonalLoop=1;jettySize=auto;html=1;" edge="1" parent="1" source="14Edlrp8t2BX-L2ckEcl-44" target="14Edlrp8t2BX-L2ckEcl-10">
          <mxGeometry relative="1" as="geometry">
            <mxPoint x="1826" y="795" as="targetPoint" />
          </mxGeometry>
        </mxCell>
        <mxCell id="14Edlrp8t2BX-L2ckEcl-46" value="1:N" style="edgeLabel;html=1;align=center;verticalAlign=middle;resizable=0;points=[];" vertex="1" connectable="0" parent="14Edlrp8t2BX-L2ckEcl-45">
          <mxGeometry x="0.0718" y="1" relative="1" as="geometry">
            <mxPoint as="offset" />
          </mxGeometry>
        </mxCell>
        <mxCell id="14Edlrp8t2BX-L2ckEcl-47" value="- Jerarquia, solapda&lt;div&gt;(no disjunta) y total&lt;/div&gt;" style="text;html=1;align=center;verticalAlign=middle;resizable=0;points=[];autosize=1;strokeColor=none;fillColor=none;" vertex="1" parent="1">
          <mxGeometry x="2300" y="463" width="130" height="40" as="geometry" />
        </mxCell>
        <mxCell id="14Edlrp8t2BX-L2ckEcl-48" value="- Jerarquia, solapda&lt;div&gt;(no disjunta) y parcial&lt;/div&gt;" style="text;html=1;align=center;verticalAlign=middle;resizable=0;points=[];autosize=1;strokeColor=none;fillColor=none;" vertex="1" parent="1">
          <mxGeometry x="1165" y="463" width="140" height="40" as="geometry" />
        </mxCell>
        <mxCell id="14Edlrp8t2BX-L2ckEcl-49" value="&lt;ul&gt;&lt;li&gt;ID_Personal(PK)&lt;/li&gt;&lt;li style=&quot;&quot;&gt;Nombre&amp;nbsp;&lt;/li&gt;&lt;li&gt;Direccion&amp;nbsp;&lt;/li&gt;&lt;li&gt;Telefono&lt;/li&gt;&lt;/ul&gt;" style="text;html=1;align=left;verticalAlign=middle;resizable=0;points=[];autosize=1;strokeColor=none;fillColor=none;" vertex="1" parent="1">
          <mxGeometry x="880" y="440" width="150" height="100" as="geometry" />
        </mxCell>
        <mxCell id="14Edlrp8t2BX-L2ckEcl-50" value="&lt;ul&gt;&lt;li&gt;Especialidad&lt;/li&gt;&lt;/ul&gt;" style="text;html=1;align=left;verticalAlign=middle;resizable=0;points=[];autosize=1;strokeColor=none;fillColor=none;" vertex="1" parent="1">
          <mxGeometry x="1090" y="608" width="130" height="50" as="geometry" />
        </mxCell>
        <mxCell id="14Edlrp8t2BX-L2ckEcl-51" value="&lt;ul&gt;&lt;li&gt;ID_Proyecto(PK)&lt;/li&gt;&lt;li&gt;Nombre&lt;/li&gt;&lt;li&gt;Esfuerzo_estimado&lt;/li&gt;&lt;/ul&gt;" style="text;html=1;align=center;verticalAlign=middle;resizable=0;points=[];autosize=1;strokeColor=none;fillColor=none;" vertex="1" parent="1">
          <mxGeometry x="2535" y="450" width="170" height="80" as="geometry" />
        </mxCell>
        <mxCell id="14Edlrp8t2BX-L2ckEcl-52" value="&lt;ul&gt;&lt;li&gt;CUIL(PK)&lt;/li&gt;&lt;li&gt;Nombre&lt;/li&gt;&lt;li&gt;Direccion&lt;/li&gt;&lt;li&gt;Telefono&lt;/li&gt;&lt;/ul&gt;" style="text;html=1;align=center;verticalAlign=middle;resizable=0;points=[];autosize=1;strokeColor=none;fillColor=none;" vertex="1" parent="1">
          <mxGeometry x="1805" y="1060" width="110" height="100" as="geometry" />
        </mxCell>
        <mxCell id="14Edlrp8t2BX-L2ckEcl-53" value="&lt;div&gt;&lt;ul&gt;&lt;li&gt;plazo_estimado&lt;/li&gt;&lt;/ul&gt;&lt;/div&gt;" style="text;html=1;align=center;verticalAlign=middle;resizable=0;points=[];autosize=1;strokeColor=none;fillColor=none;" vertex="1" parent="1">
          <mxGeometry x="2335" y="250" width="150" height="50" as="geometry" />
        </mxCell>
        <mxCell id="14Edlrp8t2BX-L2ckEcl-54" value="&lt;ul&gt;&lt;li&gt;presupuesto&lt;/li&gt;&lt;/ul&gt;" style="text;html=1;align=center;verticalAlign=middle;resizable=0;points=[];autosize=1;strokeColor=none;fillColor=none;" vertex="1" parent="1">
          <mxGeometry x="2345" y="600" width="130" height="50" as="geometry" />
        </mxCell>
        <mxCell id="14Edlrp8t2BX-L2ckEcl-55" value="&lt;ul&gt;&lt;li&gt;ID_trabajador&lt;/li&gt;&lt;li&gt;esfuerzo&lt;/li&gt;&lt;li&gt;ID_Proyecto&lt;/li&gt;&lt;/ul&gt;" style="text;html=1;align=center;verticalAlign=middle;resizable=0;points=[];autosize=1;strokeColor=none;fillColor=none;" vertex="1" parent="1">
          <mxGeometry x="1655" y="503" width="140" height="80" as="geometry" />
        </mxCell>
        <mxCell id="14Edlrp8t2BX-L2ckEcl-56" value="&lt;ul&gt;&lt;li&gt;ID_Servicios(PK)&lt;/li&gt;&lt;li&gt;Precio_mes&lt;/li&gt;&lt;/ul&gt;" style="text;html=1;align=center;verticalAlign=middle;resizable=0;points=[];autosize=1;strokeColor=none;fillColor=none;" vertex="1" parent="1">
          <mxGeometry x="1665" y="685" width="150" height="70" as="geometry" />
        </mxCell>
        <mxCell id="14Edlrp8t2BX-L2ckEcl-58" value="&lt;span style=&quot;font-size: 26px;&quot;&gt;EMPRESA DE SERVICIOS&amp;nbsp;&lt;/span&gt;" style="text;html=1;align=center;verticalAlign=middle;resizable=0;points=[];autosize=1;strokeColor=none;fillColor=none;" vertex="1" parent="1">
          <mxGeometry x="945" y="50" width="350" height="40" as="geometry" />
        </mxCell>
      </root>
    </mxGraphModel>
  </diagram>
</mxfile>
